<svg xmlns="http://www.w3.org/2000/svg" width="24" height="24" viewBox="0 0 24 24" fill="none">
  <path d="M9.5 3.5c.55 3.3 2.7 5.45 6 6-3.3.55-5.45 2.7-6 6-.55-3.3-2.7-5.45-6-6 3.3-.55 5.45-2.7 6-6Z" fill="#F9FAFB"/>
  <path d="M17.5 2c.28 1.65 1.35 2.72 3 3-1.65.28-2.72 1.35-3 3-.28-1.65-1.35-2.72-3-3 1.65-.28 2.72-1.35 3-3Z" fill="#F9FAFB"/>
  <path d="M17.5 14c.32 1.92 1.58 3.18 3.5 3.5-1.92.32-3.18 1.58-3.5 3.5-.32-1.92-1.58-3.18-3.5-3.5 1.92-.32 3.18-1.58 3.5-3.5Z" fill="#F9FAFB"/>
</svg>
